<svg width="41" height="60" viewBox="0 0 41 60" fill="none" xmlns="http://www.w3.org/2000/svg">
<g filter="url(#filter0_d_1_102)">
<path d="M4.60001 11.5H4V21.2H15.8C16.9 21.2 17.3 22.7 16.3 23.2L14 24.3C10.9 25.8 7.80001 26.6 4.60001 26.6H4V36.3H15.5C16.6 36.3 17 37.8 16 38.3L13.6 39.4C10.7 40.8 7.60001 41.5 4.60001 41.5H4V51.2H15.5L16.8 49.6C22.4 43.1 28.9 39.7 35.7 39.7H36.2V30H24.7C23.6 30 23.2 28.5 24.2 28L26.6 26.9C29.5 25.5 32.6 24.8 35.6 24.8H36.1V15.1H24.4C23.3 15.1 22.9 13.6 23.9 13.1L26.2 12C29.3 10.5 32.4 9.70001 35.6 9.70001H36.1V0H24.6L23.3 1.60001C17.9 8.10001 11.3 11.5 4.60001 11.5Z" fill="white"/>
</g>
<defs>
<filter id="filter0_d_1_102" x="0" y="0" width="40.2" height="59.2" filterUnits="userSpaceOnUse" color-interpolation-filters="sRGB">
<feFlood flood-opacity="0" result="BackgroundImageFix"/>
<feColorMatrix in="SourceAlpha" type="matrix" values="0 0 0 0 0 0 0 0 0 0 0 0 0 0 0 0 0 0 127 0" result="hardAlpha"/>
<feOffset dy="4"/>
<feGaussianBlur stdDeviation="2"/>
<feComposite in2="hardAlpha" operator="out"/>
<feColorMatrix type="matrix" values="0 0 0 0 0 0 0 0 0 0 0 0 0 0 0 0 0 0 0.25 0"/>
<feBlend mode="normal" in2="BackgroundImageFix" result="effect1_dropShadow_1_102"/>
<feBlend mode="normal" in="SourceGraphic" in2="effect1_dropShadow_1_102" result="shape"/>
</filter>
</defs>
</svg>
