<svg width="41" height="60" viewBox="0 0 41 60" fill="none" xmlns="http://www.w3.org/2000/svg">
<g filter="url(#filter0_d_1_102)">
<path d="M4.60001 11.5H4V21.2H15.8C16.9 21.2 17.3 22.7 16.3 23.2L14 24.3C10.9 25.8 7.80001 26.6 4.60001 26.6H4V36.3H15.5C16.6 36.3 17 37.8 16 38.3L13.6 39.4C10.7 40.8 7.60001 41.5 4.60001 41.5H4V51.2H15.5L16.8 49.6C22.4 43.1 28.9 39.7 35.7 39.7H36.2V30H24.7C23.6 30 23.2 28.5 24.2 28L26.6 26.9C29.5 25.5 32.6 24.8 35.6 24.8H36.1V15.1H24.4C23.3 15.1 22.9 13.6 23.9 13.1L26.2 12C29.3 10.5 32.4 9.70001 35.6 9.70001H36.1V0H24.6L23.3 1.60001C17.9 8.10001 11.3 11.5 4.60001 11.5Z" fill="#0A0A0A"/>
<path d="M35.5996 0.5V9.2002C32.3134 9.20026 29.1401 10.0222 25.9844 11.5488L23.6846 12.6484L23.6768 12.6523C22.9355 13.023 22.7157 13.7812 22.8779 14.4121C23.0387 15.0375 23.5897 15.5996 24.4004 15.5996H35.5996V24.2998C32.5259 24.2999 29.3551 25.0163 26.3916 26.4453L23.9912 27.5459L23.9844 27.5488L23.9766 27.5527C23.2353 27.9234 23.0165 28.6816 23.1787 29.3125C23.3397 29.9377 23.8898 30.5 24.7002 30.5H35.7002V39.2002C28.7184 39.2002 22.0893 42.694 16.4209 49.2734L16.416 49.2793L16.4121 49.2852L15.2627 50.7002H4.5V42H4.59961C7.67642 42 10.8503 41.2814 13.8164 39.8496L16.208 38.7549L16.2236 38.7471C16.9647 38.3765 17.1836 37.6191 17.0215 36.9883C16.8607 36.3629 16.3107 35.7998 15.5 35.7998H4.5V27.0996H4.59961C7.88605 27.0996 11.0599 26.2777 14.2158 24.751L16.5156 23.6514L16.5234 23.6475C17.2647 23.2768 17.4835 22.5186 17.3213 21.8877C17.1603 21.2625 16.6103 20.7002 15.7998 20.7002H4.5V12H4.59961C11.4799 12 18.2119 8.50728 23.6846 1.91992L23.6885 1.91504L24.8379 0.5H35.5996Z" stroke="black"/>
</g>
<defs>
<filter id="filter0_d_1_102" x="0" y="0" width="40.2" height="59.2" filterUnits="userSpaceOnUse" color-interpolation-filters="sRGB">
<feFlood flood-opacity="0" result="BackgroundImageFix"/>
<feColorMatrix in="SourceAlpha" type="matrix" values="0 0 0 0 0 0 0 0 0 0 0 0 0 0 0 0 0 0 127 0" result="hardAlpha"/>
<feOffset dy="4"/>
<feGaussianBlur stdDeviation="2"/>
<feComposite in2="hardAlpha" operator="out"/>
<feColorMatrix type="matrix" values="0 0 0 0 0 0 0 0 0 0 0 0 0 0 0 0 0 0 0.25 0"/>
<feBlend mode="normal" in2="BackgroundImageFix" result="effect1_dropShadow_1_102"/>
<feBlend mode="normal" in="SourceGraphic" in2="effect1_dropShadow_1_102" result="shape"/>
</filter>
</defs>
</svg>
